<?xml version="1.0" encoding="UTF-8" standalone="no"?>
<!-- Created with Inkscape (http://www.inkscape.org/) -->

<svg
   xmlns:dc="http://purl.org/dc/elements/1.1/"
   xmlns:cc="http://creativecommons.org/ns#"
   xmlns:rdf="http://www.w3.org/1999/02/22-rdf-syntax-ns#"
   xmlns:svg="http://www.w3.org/2000/svg"
   xmlns="http://www.w3.org/2000/svg"
   xmlns:sodipodi="http://sodipodi.sourceforge.net/DTD/sodipodi-0.dtd"
   xmlns:inkscape="http://www.inkscape.org/namespaces/inkscape"
   width="744.09448819"
   height="1052.3622047"
   id="svg3029"
   version="1.1"
   inkscape:version="0.48.4 r9939">
  <defs
     id="defs3031" />
  <sodipodi:namedview
     id="base"
     pagecolor="#ffffff"
     bordercolor="#666666"
     borderopacity="1.0"
     inkscape:pageopacity="0.0"
     inkscape:pageshadow="2"
     inkscape:zoom="0.49497475"
     inkscape:cx="97.749105"
     inkscape:cy="599.51034"
     inkscape:document-units="px"
     inkscape:current-layer="layer1"
     showgrid="false"
     inkscape:window-width="1366"
     inkscape:window-height="716"
     inkscape:window-x="-8"
     inkscape:window-y="-8"
     inkscape:window-maximized="1" />
  <metadata
     id="metadata3034">
    <rdf:RDF>
      <cc:Work
         rdf:about="">
        <dc:format>image/svg+xml</dc:format>
        <dc:type
           rdf:resource="http://purl.org/dc/dcmitype/StillImage" />
        <dc:title></dc:title>
      </cc:Work>
    </rdf:RDF>
  </metadata>
  <g
     inkscape:label="Livello 1"
     inkscape:groupmode="layer"
     id="layer1">
    <rect
       style="fill:#000000;fill-opacity:1;stroke:none"
       id="rect7912"
       width="687.94592"
       height="35.545422"
       x="27.027046"
       y="694.5282"
       rx="3.6746314"
       inkscape:export-filename="C:\Users\Giorgio\Desktop\text4031.png"
       inkscape:export-xdpi="57.273209"
       inkscape:export-ydpi="57.273209" />
    <g
       transform="matrix(0.87491226,0,0,0.87491226,-66.456131,-118.87481)"
       id="g7995"
       style="fill:#f0f0f0;fill-opacity:1;stroke:#c9c9c9;stroke-width:20;stroke-linecap:round;stroke-linejoin:round;stroke-miterlimit:4;stroke-opacity:1;stroke-dasharray:none"
       inkscape:export-filename="C:\Users\Giorgio\Desktop\text4031.png"
       inkscape:export-xdpi="57.273209"
       inkscape:export-ydpi="57.273209">
      <path
         style="opacity:0.93999999;fill:#f0f0f0;fill-opacity:1;stroke:#c9c9c9;stroke-width:20;stroke-linecap:round;stroke-linejoin:round;stroke-miterlimit:4;stroke-opacity:1;stroke-dasharray:none"
         d="m 92.144957,934.35703 815.709283,-0.0148 -10,-83.98691 c 0.0871,-5.84271 -3.68585,-15.80464 -17.50647,-29.2169 -13.82062,-13.41226 -318.42355,-42.29703 -330.35932,-62.9704 l -99.9769,1e-5 c -11.93577,20.67337 -316.58661,49.60463 -330.35932,62.9704 -13.77271,13.36577 -17.5704,23.30997 -17.50727,29.15586 z"
         id="path7864"
         inkscape:connector-curvature="0"
         sodipodi:nodetypes="ccczcczcc" />
      <path
         sodipodi:nodetypes="zzzzcczzzzzz"
         inkscape:connector-curvature="0"
         id="path7860"
         d="m 255.65224,182.04357 c -23.93987,18.4345 -48.21495,207.2938 -38.57143,234.2857 9.64352,26.992 237.25422,383.0298 222.93074,407.8388 -14.32348,24.809 -302.33755,53.7766 -330.35932,80.9704 -28.021768,27.1938 -14,37.5983 -14,37.5983 l 808.69554,0 c 0,0 14.02177,-10.4045 -14,-37.5983 -28.02177,-27.1938 -316.03584,-56.1614 -330.35932,-80.9704 -14.32348,-24.809 213.28722,-380.8468 222.93074,-407.8388 9.64352,-26.9919 -14.63156,-215.8512 -38.57143,-234.2857 C 720.40789,163.60917 582.00417,153.47217 500,153.47217 c -82.00417,0 -220.40789,10.137 -244.34776,28.5714 z"
         style="fill:#f0f0f0;fill-opacity:1;stroke:#c9c9c9;stroke-width:20;stroke-linecap:round;stroke-linejoin:round;stroke-miterlimit:4;stroke-opacity:1;stroke-dasharray:none" />
    </g>
    <path
       style="fill:#0099cc;fill-opacity:1;stroke:#c9c9c9;stroke-width:17.49824524;stroke-linecap:butt;stroke-linejoin:round;stroke-miterlimit:4;stroke-opacity:1;stroke-dasharray:none"
       d="m 157.22494,40.39733 c -20.94528,16.12852 -42.20337,181.35994 -33.76614,204.97554 0,0 -3.37179,26.51384 247.53181,26.51384 250.90361,0 247.53182,-26.51384 247.53182,-26.51384 8.43724,-23.6156 -12.79352,-188.84702 -33.7388,-204.97554 0,0 37.43676,26.51384 -213.77934,26.51384 -251.2161,0 -213.77935,-26.51384 -213.77935,-26.51384 z"
       id="rect4039"
       inkscape:connector-curvature="0"
       sodipodi:nodetypes="cczcczc"
       inkscape:export-filename="C:\Users\Giorgio\Desktop\text4031.png"
       inkscape:export-xdpi="57.273209"
       inkscape:export-ydpi="57.273209" />
    <text
       xml:space="preserve"
       style="font-size:40px;font-style:normal;font-variant:normal;font-weight:bold;font-stretch:normal;line-height:125%;letter-spacing:0px;word-spacing:0px;fill:#000000;fill-opacity:1;stroke:none;font-family:Roboto;-inkscape-font-specification:Sans Bold"
       x="204.55426"
       y="237.62761"
       id="text3127"
       sodipodi:linespacing="125%"
       transform="matrix(0.99862953,0.05233596,-0.05233596,0.99862953,0,0)"><tspan
         sodipodi:role="line"
         id="tspan3129"
         x="204.55426"
         y="237.62761"
         style="font-size:240px;fill:#ffffff">B</tspan></text>
    <text
       xml:space="preserve"
       style="font-size:40px;font-style:normal;font-variant:normal;font-weight:bold;font-stretch:normal;line-height:125%;letter-spacing:0px;word-spacing:0px;fill:#000000;fill-opacity:1;stroke:none;font-family:Roboto;-inkscape-font-specification:Sans Bold"
       x="370.44412"
       y="276.27417"
       id="text3131"
       sodipodi:linespacing="125%"
       transform="matrix(0.99862953,-0.05233596,0.05233596,0.99862953,0,0)"><tspan
         sodipodi:role="line"
         id="tspan3133"
         x="370.44412"
         y="276.27417"
         style="font-size:240px;fill:#ffffff">R</tspan></text>
  </g>
</svg>
